<?xml version="1.0" encoding="utf-8"?>
<!-- Generator: Adobe Illustrator 24.1.1, SVG Export Plug-In . SVG Version: 6.00 Build 0)  -->
<svg version="1.1" id="Layer_1" xmlns="http://www.w3.org/2000/svg" xmlns:xlink="http://www.w3.org/1999/xlink" x="0px" y="0px"
	 viewBox="0 0 200 200" style="enable-background:new 0 0 200 200;" xml:space="preserve">
<style type="text/css">
	.st0{fill:#1677F0;}
	.st1{fill:#FFFFFF;}
</style>
<g>
	<path class="st0" d="M181.83,97.54c0-44.48-36.06-80.54-80.54-80.54S20.75,53.06,20.75,97.54c0,40.2,29.45,73.52,67.96,79.56
		v-56.28H68.26V97.54h20.45V79.8c0-20.19,12.02-31.33,30.42-31.33c8.81,0,18.03,1.57,18.03,1.57v19.82H127
		c-10,0-13.12,6.21-13.12,12.58v15.11h22.34l-3.57,23.28h-18.77v56.28C152.38,171.06,181.83,137.74,181.83,97.54z"/>
	<path class="st1" d="M132.64,120.82l3.57-23.28h-22.34V82.43c0-6.37,3.12-12.58,13.12-12.58h10.16V50.03c0,0-9.22-1.57-18.03-1.57
		c-18.4,0-30.42,11.15-30.42,31.33v17.74H68.26v23.28h20.45v56.28c4.1,0.64,8.3,0.98,12.58,0.98s8.48-0.34,12.58-0.98v-56.28H132.64
		z"/>
</g>
</svg>
