<?xml version="1.0" encoding="utf-8"?>
<!-- Generator: Adobe Illustrator 24.1.1, SVG Export Plug-In . SVG Version: 6.00 Build 0)  -->
<svg version="1.1" id="Layer_1" xmlns="http://www.w3.org/2000/svg" xmlns:xlink="http://www.w3.org/1999/xlink" x="0px" y="0px"
	 viewBox="0 0 200 200" style="enable-background:new 0 0 200 200;" xml:space="preserve">
<style type="text/css">
	.st0{fill:url(#SVGID_1_);}
	.st1{fill-rule:evenodd;clip-rule:evenodd;fill:#FFFFFF;}
</style>
<g>
	<linearGradient id="SVGID_1_" gradientUnits="userSpaceOnUse" x1="101.293" y1="168.2365" x2="101.293" y2="6.3156">
		<stop  offset="0" style="stop-color:#27CD44"/>
		<stop  offset="1" style="stop-color:#5FFB7C"/>
	</linearGradient>
	<circle class="st0" cx="101.29" cy="99.04" r="80.96"/>
	<g>
		<g id="WA_Logo_2_">
			<g>
				<path class="st1" d="M140.24,61.09c-9.7-9.7-22.59-15.05-36.33-15.06c-28.31,0-51.35,23.03-51.36,51.34
					c0,9.05,2.36,17.88,6.86,25.67l-7.29,26.61l27.23-7.14c7.5,4.09,15.95,6.25,24.54,6.25h0.02c0,0,0,0,0,0
					c28.31,0,51.35-23.03,51.36-51.34C155.27,83.7,149.93,70.8,140.24,61.09z M103.91,140.09h-0.02c-7.66,0-15.17-2.06-21.73-5.95
					l-1.56-0.92l-16.16,4.24l4.31-15.75l-1.02-1.61c-4.27-6.79-6.53-14.65-6.53-22.71c0.01-23.53,19.16-42.67,42.71-42.67
					c11.4,0,22.12,4.45,30.18,12.52c8.06,8.07,12.5,18.79,12.49,30.19C146.59,120.94,127.44,140.09,103.91,140.09z M127.32,108.12
					c-1.28-0.64-7.59-3.75-8.77-4.17c-1.18-0.43-2.03-0.64-2.89,0.64c-0.86,1.28-3.31,4.17-4.06,5.03c-0.75,0.86-1.5,0.96-2.78,0.32
					c-1.28-0.64-5.42-2-10.32-6.37c-3.81-3.4-6.39-7.6-7.14-8.89c-0.75-1.28-0.08-1.98,0.56-2.62c0.58-0.57,1.28-1.5,1.92-2.25
					c0.64-0.75,0.86-1.28,1.28-2.14c0.43-0.86,0.21-1.61-0.11-2.25c-0.32-0.64-2.89-6.96-3.96-9.53c-1.04-2.5-2.1-2.16-2.89-2.2
					c-0.75-0.04-1.6-0.05-2.46-0.05c-0.86,0-2.25,0.32-3.42,1.61c-1.18,1.28-4.49,4.39-4.49,10.7c0,6.31,4.6,12.41,5.24,13.27
					s9.05,13.81,21.92,19.37c3.06,1.32,5.45,2.11,7.32,2.7c3.07,0.98,5.87,0.84,8.08,0.51c2.47-0.37,7.59-3.1,8.66-6.1
					c1.07-3,1.07-5.57,0.75-6.1C129.46,109.09,128.61,108.77,127.32,108.12z"/>
			</g>
		</g>
	</g>
</g>
</svg>
